<?xml version="1.0" encoding="utf-8"?>
<!-- Generator: Adobe Illustrator 16.0.0, SVG Export Plug-In . SVG Version: 6.00 Build 0)  -->
<!DOCTYPE svg PUBLIC "-//W3C//DTD SVG 1.1//EN" "http://www.w3.org/Graphics/SVG/1.1/DTD/svg11.dtd">
<svg version="1.1" id="Layer_1" xmlns="http://www.w3.org/2000/svg" xmlns:xlink="http://www.w3.org/1999/xlink" x="0px" y="0px"
	 width="1024px" height="1024px" viewBox="0 0 1024 1024" enable-background="new 0 0 1024 1024" xml:space="preserve">
<path fill-rule="evenodd" clip-rule="evenodd" fill="#37BFEF" d="M510.288,1014.959C234.465,1016.487,5.693,789.568,6.949,508.89
	C8.19,232.825,229.897,5.749,512.833,6.517c280.654,0.761,501.649,226.217,502.891,502.441
	C1016.994,792.159,785.971,1017.126,510.288,1014.959z M512.35,226.929c-56.441,0-112.885,0.292-169.318-0.214
	c-13.183-0.119-21.799,3.519-29.153,15.348c-11.634,18.728-27.136,34.158-50.817,36.913c-8.364,0.973-9.508,7.413-10.976,13.034
	c-5.352,20.488-10.594,41.029-14.943,61.745c-13.918,66.328-18.999,133.278-6.025,200.148
	c29.262,150.812,122.826,247.251,261.425,304.685c13.249,5.486,25.657,4.501,38.947-1.039c31.623-13.18,61.862-28.723,90.094-48.128
	c67.302-46.253,118.7-105.68,148.289-182.388c43.407-112.531,32.197-225.229-0.847-337.697c-1.201-4.084-1.6-9.702-7.901-10.172
	c-27.665-2.074-42.109-22.218-55.851-42.254c-5.579-8.135-11.529-10.17-20.5-10.127C627.299,227.05,569.826,226.92,512.35,226.929z"
	/>
<path fill-rule="evenodd" clip-rule="evenodd" fill="#F8F6F2" d="M512.35,226.925c57.476-0.005,114.949,0.125,172.423-0.142
	c8.971-0.043,14.921,1.992,20.5,10.127c13.741,20.036,28.186,40.18,55.851,42.254c6.302,0.471,6.7,6.088,7.901,10.172
	c33.044,112.468,44.254,225.166,0.847,337.697c-29.589,76.708-80.987,136.135-148.289,182.388
	c-28.231,19.405-58.471,34.948-90.094,48.128c-13.29,5.54-25.698,6.525-38.947,1.039
	c-138.599-57.434-232.163-153.873-261.425-304.685c-12.973-66.87-7.893-133.821,6.025-200.148
	c4.349-20.716,9.591-41.257,14.943-61.745c1.468-5.621,2.612-12.061,10.976-13.034c23.681-2.755,39.183-18.185,50.817-36.913
	c7.354-11.829,15.971-15.467,29.153-15.348C399.465,227.22,455.909,226.929,512.35,226.925z M510.969,259.058
	c-48.65,0-97.312,0.57-145.945-0.353c-14.34-0.271-24.607,2.996-32.404,15.335c-5.558,8.801-13.791,17.119-22.981,20.266
	c-25.495,8.729-30.141,29.446-33.935,51.519c-0.173,1.01-0.637,1.966-0.867,2.974c-16.036,69.847-21.355,140.522-5.997,210.728
	C297.398,690.03,379.2,776.035,500.407,827.188c7.516,3.171,14.592,3.227,22.349-0.066c23.847-10.118,47.127-21.255,68.905-35.356
	c78.53-50.859,132.857-119.73,157.48-210.914c23.923-88.577,14.692-175.988-8.215-263.078c-1.905-7.25-5.638-11.877-12.313-14.525
	c-17.904-7.098-31.61-19.757-42.91-34.673c-5.816-7.672-12.083-9.7-21.021-9.646C613.445,259.225,562.207,259.073,510.969,259.058z"
	/>
<path fill-rule="evenodd" clip-rule="evenodd" fill="#37BFEF" d="M510.969,259.065c51.238,0.008,102.476,0.16,153.713-0.137
	c8.938-0.053,15.204,1.975,21.021,9.646c11.3,14.916,25.006,27.575,42.91,34.673c6.676,2.648,10.408,7.276,12.313,14.525
	c22.907,87.089,32.138,174.501,8.215,263.078c-24.623,91.184-78.95,160.055-157.48,210.914
	c-21.778,14.102-45.059,25.238-68.905,35.356c-7.757,3.293-14.833,3.237-22.349,0.066C379.2,776.035,297.398,690.03,268.841,559.526
	c-15.359-70.206-10.039-140.88,5.997-210.728c0.23-1.008,0.694-1.963,0.867-2.974c3.794-22.073,8.44-42.79,33.935-51.519
	c9.19-3.146,17.424-11.465,22.981-20.266c7.797-12.34,18.064-15.607,32.404-15.335C413.658,259.628,462.319,259.058,510.969,259.065
	z M513.018,276.112c0-0.014,0-0.031,0-0.047c-44.521,0-89.055,0.697-133.544-0.422c-13.439-0.34-22.079,5.525-28.341,14.726
	c-9.025,13.252-20.039,22.69-34.797,28.911c-8.096,3.408-14.08,10.434-16.001,19.668c-3.966,19.089-8.519,38.102-11.459,57.354
	c-9.203,60.229-11.025,120.26,6.177,179.691c12.827,44.313,32.589,84.703,62.51,120.236c30.48,36.212,66.99,64.889,108.646,86.297
	c20.855,10.715,41.247,23.114,69.06,10.487c91.468-41.525,156.495-107.313,188.45-202.229
	c28.076-83.384,19.324-168.185-1.628-252.05c-1.948-7.804-5.576-15.744-14.446-18.637c-17.599-5.741-29.419-18.313-39.229-33.104
	c-5.332-8.036-11.753-11.285-21.838-11.147C602.063,276.462,557.539,276.112,513.018,276.112z"/>
<path fill-rule="evenodd" clip-rule="evenodd" fill="#F8F6F2" d="M510.556,623.518c-25.855,0-51.713,0.063-77.568-0.024
	c-18.472-0.059-28.278-6.851-28.806-24.723c-1.215-41.33-0.847-82.721-0.309-124.081c0.16-12.25,9.632-16.485,20.586-16.023
	c10.108,0.426,12.964-3.94,13.942-13.599c6.727-66.399,71.627-81.604,113.682-56.28c20.088,12.098,29.427,33.028,31.525,56.026
	c1.001,10.996,5.438,13.607,15.428,14.121c18.564,0.956,24.824,7.965,24.921,26.252c0.182,34.648,0.314,69.3,0,103.948
	c-0.218,23.4-11.321,34.188-34.277,34.265c-26.375,0.088-52.75,0.021-79.123,0.021C510.556,623.45,510.556,623.486,510.556,623.518z
	 M510.286,458.532c0-0.031,0-0.066,0-0.096c12.892,0,25.784-0.004,38.678,0c4.732,0.004,9.063,0.115,10.489-6.269
	c2.499-11.152-4.83-34.05-14.499-40.571c-29.111-19.628-78.771-14.369-83.776,34.669c-0.947,9.297,1.938,12.339,10.432,12.289
	C484.502,458.471,497.395,458.532,510.286,458.532z M514.559,589.12c15.446,4.28,14.261-5.992,12.936-18.354
	c-1.524-14.199-8.4-28.548,2.811-42.758c9.671-12.259,7.502-26.19-3.799-34.073c-10.485-7.314-21.401-6.853-31.136,1.971
	c-10.206,9.25-11.387,23.29-2.153,34.611c4.349,5.326,6.275,10.003,4.543,16.793c-1.768,6.97-2.59,14.214-3.425,21.382
	C492.068,588.102,493.307,589.424,514.559,589.12z"/>
<path fill-rule="evenodd" clip-rule="evenodd" fill="#F3B545" d="M510.286,458.532c-12.891,0-25.783-0.062-38.676,0.023
	c-8.494,0.05-11.379-2.991-10.432-12.289c5.005-49.039,54.665-54.298,83.776-34.669c9.669,6.521,16.998,29.419,14.499,40.571
	c-1.427,6.383-5.757,6.272-10.489,6.269c-12.895-0.004-25.786,0-38.678,0C510.286,458.466,510.286,458.501,510.286,458.532z"/>
<path fill-rule="evenodd" clip-rule="evenodd" fill="#F3B545" d="M514.559,589.12c-21.252,0.304-22.49-1.019-20.223-20.428
	c0.835-7.168,1.657-14.412,3.425-21.382c1.731-6.79-0.194-11.467-4.543-16.793c-9.234-11.321-8.053-25.361,2.153-34.611
	c9.735-8.823,20.651-9.285,31.136-1.971c11.301,7.882,13.47,21.814,3.799,34.073c-11.211,14.21-4.335,28.559-2.811,42.758
	C528.819,583.128,530.005,593.4,514.559,589.12z"/>
<path fill-rule="evenodd" clip-rule="evenodd" fill="#F3B545" d="M513.018,276.112c44.521,0,89.045,0.351,133.56-0.267
	c10.085-0.137,16.506,3.112,21.838,11.147c9.811,14.791,21.631,27.362,39.229,33.104c8.87,2.893,12.498,10.833,14.446,18.637
	c20.952,83.865,29.704,168.667,1.628,252.05c-31.955,94.916-96.982,160.704-188.45,202.229
	c-27.813,12.627-48.204,0.228-69.06-10.487c-41.657-21.408-78.166-50.085-108.646-86.297
	c-29.921-35.533-49.683-75.923-62.51-120.236c-17.202-59.431-15.379-119.462-6.177-179.691c2.94-19.252,7.493-38.265,11.459-57.354
	c1.921-9.234,7.905-16.26,16.001-19.668c14.758-6.221,25.772-15.659,34.797-28.911c6.262-9.201,14.901-15.065,28.341-14.726
	c44.489,1.12,89.023,0.422,133.544,0.422C513.018,276.081,513.018,276.098,513.018,276.112z M510.554,623.518
	c0-0.031,0-0.067,0-0.098c26.375,0,52.75,0.066,79.125-0.021c22.956-0.076,34.06-10.864,34.277-34.265
	c0.314-34.647,0.182-69.3,0-103.948c-0.097-18.287-6.356-25.297-24.921-26.252c-9.989-0.514-14.427-3.125-15.428-14.121
	c-2.099-22.998-11.438-43.928-31.525-56.026c-42.055-25.324-106.955-10.119-113.682,56.28c-0.979,9.658-3.834,14.025-13.942,13.599
	c-10.954-0.461-20.426,3.773-20.586,16.023c-0.538,41.36-0.906,82.751,0.309,124.081c0.528,17.872,10.334,24.664,28.806,24.723
	C458.842,623.58,484.7,623.518,510.554,623.518z"/>
</svg>
